<svg width="28" height="27" viewBox="0 0 28 27" fill="none" xmlns="http://www.w3.org/2000/svg">
<path d="M27.125 1.10962C26.3125 0.337376 25 0.337376 24.1875 1.10962L14 10.7726L3.8125 1.08982C3 0.317575 1.6875 0.317575 0.875 1.08982C0.0625 1.86206 0.0625 3.10953 0.875 3.88177L11.0625 13.5645L0.875 23.2472C0.0625 24.0195 0.0625 25.267 0.875 26.0392C1.6875 26.8114 3 26.8114 3.8125 26.0392L14 16.3565L24.1875 26.0392C25 26.8114 26.3125 26.8114 27.125 26.0392C27.9375 25.267 27.9375 24.0195 27.125 23.2472L16.9375 13.5645L27.125 3.88177C27.9167 3.12933 27.9167 1.86206 27.125 1.10962Z" fill="#565B62"/>
</svg>
