<svg width="93" height="64" viewBox="0 0 93 64" fill="none" xmlns="http://www.w3.org/2000/svg">
<path d="M46.0942 0.698242C25.2218 0.698242 7.39668 13.6809 0.174805 32.0069C7.39668 50.333 25.2218 63.3156 46.0942 63.3156C66.9667 63.3156 84.7918 50.333 92.0136 32.0069C84.7918 13.6809 66.9667 0.698242 46.0942 0.698242ZM46.0942 52.8794C34.5726 52.8794 25.2218 43.5285 25.2218 32.0069C25.2218 20.4853 34.5726 11.1345 46.0942 11.1345C57.6158 11.1345 66.9667 20.4853 66.9667 32.0069C66.9667 43.5285 57.6158 52.8794 46.0942 52.8794ZM46.0942 19.4835C39.1646 19.4835 33.5707 25.0773 33.5707 32.0069C33.5707 38.9366 39.1646 44.5304 46.0942 44.5304C53.0239 44.5304 58.6177 38.9366 58.6177 32.0069C58.6177 25.0773 53.0239 19.4835 46.0942 19.4835Z" fill="url(#paint0_linear)"/>
<defs>
<linearGradient id="paint0_linear" x1="92.0137" y1="38.6793" x2="0.173739" y2="38.7856" gradientUnits="userSpaceOnUse">
<stop stop-color="#4DC8C0"/>
<stop offset="1" stop-color="#56D0C9"/>
</linearGradient>
</defs>
</svg>
