<?xml version="1.0" encoding="utf-8"?>
<!-- Generator: Adobe Illustrator 25.0.0, SVG Export Plug-In . SVG Version: 6.00 Build 0)  -->
<svg version="1.1" xmlns="http://www.w3.org/2000/svg" xmlns:xlink="http://www.w3.org/1999/xlink" x="0px" y="0px"
	 viewBox="0 0 347.8 313.1" style="enable-background:new 0 0 347.8 313.1;" xml:space="preserve">
		<g id="Слой_1-2">
			<path class="st2" d="M278.7,116.4c0.3-6.3,0.7-12.6,0.7-18.9c0-19.5,0.5-39,5.4-58c5.2-20.2,13.7-27.5,34.5-29.2
				c9.1-0.7,18.3-0.1,27.8-0.1V20c-4.4,0-8.6,0-12.9,0c-5.9,0-9.6,2.2-11.3,7.9c-1.4,4.6-2.2,9.4-2.3,14.2
				c-0.3,12.3-0.5,24.7-0.1,37c0.6,19.5-1.5,38.5-8,56.9c-0.4,0.5-0.7,1.1-1,1.7c-7.6,19.3-21,32.8-41.2,38.2
				c-16.7,4.4-33.6,7.7-50.5,11.2c-2.5,0.5-4.5,0.6-4.4,3.9c0.1,15-0.3,30,0.3,45c0.5,14.5,8.6,22.6,22.7,24.2
				c5.6,0.6,11.1,1,16.6,1.5c0.8,7.1,0.7,7.2-5.8,7.2l-85,0.2c-7.8-0.1-15.6-0.3-23.4-0.3c-6.4-0.1-6.4,0-5.7-6.8l22.5-2.9
				c9.8-1.6,14.7-9,15.4-17.3c1.5-17.1,1.2-34.5,1.4-51.7c0-0.9-1.7-2.5-2.8-2.7c-5.2-1-10.5-1.5-15.7-2.2
				c-9.9-2.4-19.8-4.5-29.6-7.2c-20.5-5.5-37.1-16-46.1-36.3c-6.7-14.9-10.3-31.1-10.7-47.4c-0.4-18,0.1-36-0.2-54
				c-0.1-6.7-0.5-13.8-6.8-18.4c-2.1-0.6-4.2-1.7-6.4-1.9c-4.6-0.4-9.2-0.3-13.9-0.4c0.1-3,0.3-5.9,0.5-9.9h15.8
				c3.7,0.1,7.4-0.1,11,0.4c21.9,2.7,30.3,8.6,35.3,28.2c4.5,17.7,5.3,35.8,5.8,53.9c0.3,13.9,0.9,27.9,2.1,41.8
				c0.8,9.2,4,17.9,10.8,24.6c12.4,12.4,28.2,16.1,45,17.5l6.1,1.2v-7.1c0-12.8,0.1-25.6,0.1-38.4c0-29.9,0-59.9-0.1-89.9
				c-0.1-11.6-5.4-17.9-16.7-20c-6.3-1.1-12.7-1.6-18.9-2.4v-9.3l4.7-0.6L245,9.9h6.1v9.7c-6.7,0.8-13.3,1.2-19.8,2.4
				c-10.3,2-15.8,8.1-15.9,18.7c-0.3,25.2-0.1,50.3-0.1,75.5v60.8c13.4-0.9,25.9-3.2,37.6-8.7c11.9-5.6,20-14.5,22.8-27.3
				C277.6,133,277.8,124.6,278.7,116.4z" fill="#656D79"/>
			<path class="st3" d="M164.1,269.1l85-0.2c6.5,0,6.6-0.1,5.8-7.2c-5.5-0.5-11.1-0.8-16.6-1.5c-14.1-1.6-22.2-9.8-22.7-24.2
				c-0.6-15-0.2-30-0.3-45c0-3.3,2-3.4,4.4-3.9c16.9-3.6,33.9-6.8,50.5-11.2c20.2-5.4,33.6-18.9,41.2-38.2c0.3-0.6,0.6-1.1,1-1.7
				c17.2,14,28,32.1,32.8,53.5c12.4,55.3-21,108.2-75.8,121.1c-39,9.2-81.6-7-104.4-39.7C164.7,270.3,164.4,269.7,164.1,269.1z" fill="#D1956B"/>
			<path class="st4" d="M168.4,176.2c-16.7-1.3-32.5-5.1-45-17.5c-6.8-6.8-10-15.4-10.8-24.6c-1.2-13.9-1.8-27.9-2.1-41.8
				c-0.4-18.1-1.2-36.2-5.8-53.9c-5-19.6-13.4-25.6-35.3-28.2c-3.6-0.4-7.3-0.3-11-0.4c28.3-12.9,56.7-13.1,85.1,0l-4.8,0.6v9.2
				c6.2,0.8,12.6,1.2,18.9,2.4c11.4,2.1,16.7,8.4,16.7,20c0.1,30,0.1,59.9,0.1,89.9c0,12.8-0.1,25.6-0.1,38.4L168.4,176.2z" fill="#54CEC7"/>
			<path class="st4" d="M42.2,19.7c4.6,0.1,9.3,0,13.9,0.4c2.2,0.2,4.3,1.2,6.4,1.9c0.4,6.4,4.6,12.6,1.1,19.2
				c-0.1,0.5,0,1,0.3,1.4c3.3,2.2,1.4,4.8,0.8,7.4c-0.7,2.6-1.1,5.2-1.1,7.8c0.2,9.3,0.6,18.6,0.9,27.9c0.4,12.8,1,25.6,0.9,38.4
				c-0.1,14.2-1.3,28.5-1.4,42.7c0,9.4,1,18.9,1.5,28.3c-27.6-10.3-47.3-29.3-57.7-56.5C-7.6,98.4,0.2,62,29.1,30.4
				C32.8,26.3,37.8,23.2,42.2,19.7z M65.4,195c-0.5-9.4-1.6-18.9-1.5-28.3c0.1-14.2,1.2-28.5,1.4-42.7c0.1-12.8-0.5-25.6-0.9-38.4
				c-0.3-9.3-0.7-18.6-0.9-27.8c0.1-2.6,0.4-5.2,1.1-7.8c0.6-2.6,2.5-5.2-0.8-7.4c-0.3-0.4-0.5-0.9-0.3-1.4
				c3.5-6.6-0.7-12.8-1.1-19.2c6.4,4.6,6.7,11.7,6.8,18.4c0.3,18-0.1,36,0.2,54c0.3,16.3,4,32.5,10.7,47.4
				c9.1,20.2,25.6,30.8,46.1,36.2c9.8,2.6,19.7,4.8,29.5,7.2l-7.4,5.1c-15.6,7.8-32,12-49.4,11.6C87.5,201.7,76.1,199.4,65.4,195z"
				fill="#54CEC7"/>
			<path class="st3" d="M278.7,116.4c-0.9,8.2-1.1,16.6-2.9,24.7c-2.8,12.8-10.9,21.8-22.8,27.3c-11.7,5.5-24.2,7.8-37.6,8.7v-60.8
				C236.5,109.8,257.6,109.7,278.7,116.4z" fill="#D1956B"/>
			<path class="st3" d="M148.4,190.3l7.4-5.1c5.2,0.7,10.5,1.3,15.7,2.2c1.1,0.2,2.8,1.8,2.8,2.7c-0.2,17.2,0.1,34.6-1.4,51.7
				c-0.7,8.3-5.7,15.7-15.4,17.3C146.7,237.2,143.8,214.2,148.4,190.3z" fill="#D1956B"/>
			<path class="st5" d="M168.4,176.2l6.1-6v7.1L168.4,176.2z" fill="#D1956B"/>
</g>
</svg>
